<svg xmlns="http://www.w3.org/2000/svg" xmlns:xlink="http://www.w3.org/1999/xlink" fill="none" version="1.1" width="200" height="200" viewBox="0 0 200 200"><defs><clipPath id="master_svg0_1_728"><rect x="0" y="0" width="200" height="200" rx="0"/></clipPath></defs><g clip-path="url(#master_svg0_1_728)"><g><path d="M54.829999923706055,24L144.82999992370605,24C161.39899992370604,24,174.82999992370605,37.4315,174.82999992370605,54L174.82999992370605,144C174.82999992370605,160.569,161.39899992370604,174,144.82999992370605,174L54.829999923706055,174C38.261499923706054,174,24.830001660266056,160.569,24.830001449586053,144L24.830000305176053,54C24.830000094496054,37.4315,38.261499923706054,24,54.829999923706055,24" fill="#E16B8C" fill-opacity="0.20000000298023224" style="mix-blend-mode:passthrough"/></g><g><path d="M51.43999824523926,23.790000915527344C36.894098245239256,23.806531915527344,25.10652924523926,35.59410091552734,25.089998245239258,50.140000915527345L25.089998245239258,73.62000091552734C25.09000015258926,76.97790091552734,27.81210824523926,79.70000091552734,31.169998245239256,79.70000091552734C34.527888245239254,79.70000091552734,37.249998245239254,76.97790091552734,37.249998245239254,73.62000091552734L37.249998245239254,50.140000915527345C37.28849824523925,42.32720091552734,43.62709824523925,36.010900915527344,51.43999824523926,36.000000915527345C54.796698245239256,35.99840091552734,57.51699824523926,33.276730915527345,57.51699824523926,29.920000915527343C57.51699824523926,26.563270915527344,54.796698245239256,23.841638515527343,51.43999824523926,23.840000115527342L51.43999824523926,23.790000915527344ZM75.99999824523925,161.63000091552735L51.43999824523926,161.63000091552735C43.60759824523926,161.61900091552735,37.26099824523926,155.27200091552734,37.249998245239254,147.44000091552735L37.249998245239254,124.00000091552734C37.249998245239254,120.64210091552734,34.527888245239254,117.92000091552734,31.169998245239256,117.92000091552734C27.81210824523926,117.92000091552734,25.089998245239258,120.64210091552734,25.09000015258926,124.00000091552734L25.09000015258926,147.48000091552734C25.106527345239257,162.02600091552733,36.89419824523926,173.81300091552734,51.43999824523926,173.83000091552734L75.99999824523925,173.83000091552734C79.35789824523926,173.83000091552734,82.07999824523927,171.10800091552736,82.07999824523927,167.75000091552735C82.07999824523927,164.39200091552735,79.35789824523926,161.67000091552734,75.99999824523925,161.67000091552734L75.99999824523925,161.63000091552735ZM168.99999824523925,117.88000091552735C165.64199824523925,117.88000091552735,162.91999824523927,120.60210091552734,162.91999824523927,123.96000091552735L162.91999824523927,147.44000091552735C162.90899824523925,155.27200091552734,156.56199824523927,161.61900091552735,148.72999824523924,161.63000091552735L124.15999824523925,161.63000091552735C120.80209824523926,161.63000091552735,118.07999824523925,164.35200091552736,118.07999824523925,167.71000091552733C118.07999824523925,171.06800091552734,120.80209824523926,173.79000091552734,124.15999824523925,173.79000091552734L148.74999824523925,173.79000091552734C163.29599824523925,173.77300091552735,175.08299824523925,161.98600091552734,175.09999824523925,147.44000091552735L175.09999824523925,124.00000091552734C175.12199824523927,120.61870091552734,172.38099824523925,117.86880091552734,168.99999824523925,117.88000091552735ZM78.38999824523925,74.38000091552735C75.03209824523927,74.38000091552735,72.30999824523926,77.10210091552734,72.30999824523926,80.46000091552735L72.30999824523926,86.39000091552734C72.30999824523926,89.74790091552734,75.03209824523927,92.47000091552735,78.38999824523925,92.47000091552735C81.74789824523926,92.47000091552735,84.46999824523925,89.74790091552734,84.46999824523925,86.39000091552734L84.46999824523925,80.46000091552735C84.46999824523925,77.10210091552734,81.74789824523926,74.38000091552735,78.38999824523925,74.38000091552735ZM121.79999824523925,74.38000091552735C118.44209824523925,74.38000091552735,115.71999824523925,77.10210091552734,115.71999824523925,80.46000091552735L115.71999824523925,86.39000091552734C115.71999824523925,89.74790091552734,118.44209824523925,92.47000091552735,121.79999824523925,92.47000091552735C125.15799824523926,92.47000091552735,127.87999824523926,89.74790091552734,127.87999824523926,86.39000091552734L127.87999824523926,80.46000091552735C127.87999824523926,77.10210091552734,125.15799824523926,74.38000091552735,121.79999824523925,74.38000091552735ZM83.25999824523926,110.17000091552734C85.43999824523925,113.68000091552734,91.42999824523926,119.63000091552735,100.02999824523926,119.63000091552735C108.62999824523926,119.63000091552735,114.64999824523926,113.73000091552734,116.88999824523925,110.24000091552735C118.70869824523926,107.44550091552735,117.90029824523926,103.70420091552734,115.08999824523926,101.91000091552735C112.29169824523926,100.09640091552734,108.55649824523925,100.85670091552734,106.68999824523925,103.62000091552734Q104.03999824523926,107.47000091552735,100.03999824523926,107.47000091552735C96.03999824523926,107.47000091552735,93.72999824523926,103.95000091552734,93.55999824523926,103.70000091552734C91.77199824523926,100.85890091552734,88.02029824523926,100.00380091552735,85.17769824523926,101.78940091552734C82.33519824523925,103.57490091552734,81.47679824523925,107.32590091552734,83.25999824523926,110.17000091552734ZM148.73999824523926,23.790008544917345C145.38199824523926,23.790008544917345,142.65999824523925,26.512120915527344,142.65999824523925,29.870010915527345C142.65999824523925,33.22790091552734,145.38199824523926,35.95000091552734,148.73999824523926,35.95000091552734C156.57199824523926,35.96100091552734,162.91899824523927,42.307600915527345,162.92999824523926,50.140000915527345L162.92999824523926,73.62000091552734C162.92999824523926,76.97790091552734,165.65199824523927,79.70000091552734,169.00999824523925,79.70000091552734C172.36799824523925,79.70000091552734,175.08999824523926,76.97790091552734,175.08999824523926,73.62000091552734L175.08999824523926,50.140000915527345C175.07299824523926,35.59410091552734,163.28599824523926,23.806520415527345,148.73999824523926,23.790008544917345Z" fill="#E16B8C" fill-opacity="1" style="mix-blend-mode:passthrough"/></g></g></svg>