<svg xmlns="http://www.w3.org/2000/svg" xmlns:xlink="http://www.w3.org/1999/xlink" fill="none" version="1.1" width="1000" height="750" viewBox="0 0 1000 750"><g><g><path d="M1.25674,680.486C64.7553,725.695,140.776,750,218.75,750C425.857,750,593.75,582.107,593.75,375C593.75,167.893,425.857,0,218.75,0C140.776,-2.08075e-14,64.7553,24.3055,1.25674,69.514C0.469712,70.0744,6.60949e-14,70.9855,6.599e-14,71.9517L1.67136e-16,678.048C6.22114e-17,679.015,0.469712,679.926,1.25674,680.486" fill-rule="evenodd" fill="#3478F6" fill-opacity="1"/></g><g><path d="M999.008,94.607C930.392,33.6712,841.798,0,750,0C542.893,0,375,167.893,375,375C375,582.107,542.893,750,750,750C841.798,750,930.392,716.329,999.008,655.393C999.646,654.826,1000,654.021,1000,653.167L1000,96.8331C1000,95.9795,999.646,95.1739,999.008,94.607" fill-rule="evenodd" fill="#3477F4" fill-opacity="0.36000001430511475"/></g></g></svg>